HIERARCHY
ROOT C_Skin_root_JNT
{
  OFFSET 0.0165810237769 3.12063172131 9.74970098501
  CHANNELS 6 Xposition Yposition Zposition Zrotation Xrotation Yrotation
  JOINT C_Skin_spine1_JNT
  {
    OFFSET 0.644014782729 5.45785638906e-13 -3.5527136788e-15
    CHANNELS 6 Xposition Yposition Zposition Zrotation Xrotation Yrotation
    JOINT C_Skin_spine2_JNT
    {
      OFFSET 0.46880628262 1.33226762955e-15 1.7763568394e-15
      CHANNELS 6 Xposition Yposition Zposition Zrotation Xrotation Yrotation
      JOINT C_Skin_spine3_JNT
      {
        OFFSET 0.471752508257 -8.881784197e-16 8.881784197e-16
        CHANNELS 6 Xposition Yposition Zposition Zrotation Xrotation Yrotation
        JOINT C_Skin_spine4_JNT
        {
          OFFSET 0.475049907155 -8.881784197e-16 8.881784197e-16
          CHANNELS 6 Xposition Yposition Zposition Zrotation Xrotation Yrotation
          JOINT C_Skin_spine5_JNT
          {
            OFFSET 0.480774621422 4.4408920985e-16 0.0
            CHANNELS 6 Xposition Yposition Zposition Zrotation Xrotation Yrotation
            JOINT C_Skin_spine6_JNT
            {
              OFFSET 0.472515090902 0.0 -1.7763568394e-15
              CHANNELS 6 Xposition Yposition Zposition Zrotation Xrotation Yrotation
              JOINT C_Skin_chest_JNT
              {
                OFFSET 0.457560025742 -1.7763568394e-15 8.881784197e-16
                CHANNELS 6 Xposition Yposition Zposition Zrotation Xrotation Yrotation
                JOINT C_Skin_neck1_JNT
                {
                  OFFSET 0.34161073645 1.74916930895e-06 2.01401621602e-07
                  CHANNELS 6 Xposition Yposition Zposition Zrotation Xrotation Yrotation
                  JOINT C_Skin_neck2_JNT
                  {
                    OFFSET 0.184478954913 9.99200722163e-16 -3.10862446895e-15
                    CHANNELS 6 Xposition Yposition Zposition Zrotation Xrotation Yrotation
                    JOINT C_Skin_neck3_JNT
                    {
                      OFFSET 0.18444323203 -7.77156117238e-15 4.4408920985e-16
                      CHANNELS 6 Xposition Yposition Zposition Zrotation Xrotation Yrotation
                      JOINT C_Skin_neck4_JNT
                      {
                        OFFSET 0.184462138322 -3.10862446895e-15 -3.5527136788e-15
                        CHANNELS 6 Xposition Yposition Zposition Zrotation Xrotation Yrotation
                        JOINT C_Skin_neck5_JNT
                        {
                          OFFSET 0.184523960468 3.5527136788e-15 -4.4408920985e-16
                          CHANNELS 6 Xposition Yposition Zposition Zrotation Xrotation Yrotation
                          JOINT C_Skin_neck6_JNT
                          {
                            OFFSET 0.184578072718 -6.88338275268e-15 -8.881784197e-16
                            CHANNELS 6 Xposition Yposition Zposition Zrotation Xrotation Yrotation
                            JOINT C_Skin_head_JNT
                            {
                              OFFSET 0.193620833307 0.00477040198153 -1.33226762955e-15
                              CHANNELS 6 Xposition Yposition Zposition Zrotation Xrotation Yrotation
                              JOINT C_Skin_headTip_JNT
                              {
                                OFFSET 0.766066184347 -0.215410263987 -1.7763568394e-15
                                CHANNELS 6 Xposition Yposition Zposition Zrotation Xrotation Yrotation
                                End Site
                                {
                                  OFFSET 0 0 0
                                }
                              }
                              JOINT C_Skin_jaw_JNT
                              {
                                OFFSET -0.000740198535079 -0.109606680879 0.000105409300607
                                CHANNELS 6 Xposition Yposition Zposition Zrotation Xrotation Yrotation
                                JOINT joint2
                                {
                                  OFFSET 0.80327889985 -2.22044604925e-16 0.0
                                  CHANNELS 6 Xposition Yposition Zposition Zrotation Xrotation Yrotation
                                  End Site
                                  {
                                    OFFSET 0 0 0
                                  }
                                }
                              }
                            }
                          }
                        }
                      }
                    }
                  }
                }
                JOINT L_Skin_clavicle_JNT
                {
                  OFFSET 0.00675082468563 0.0196956401886 -0.383986868007
                  CHANNELS 6 Xposition Yposition Zposition Zrotation Xrotation Yrotation
                  JOINT L_Skin_shoulder_JNT
                  {
                    OFFSET 0.910590239312 -1.7763568394e-15 -1.06581410364e-14
                    CHANNELS 6 Xposition Yposition Zposition Zrotation Xrotation Yrotation
                    JOINT L_Skin_edbow_JNT
                    {
                      OFFSET 0.940271685332 3.5527136788e-15 8.881784197e-16
                      CHANNELS 6 Xposition Yposition Zposition Zrotation Xrotation Yrotation
                      JOINT L_Skin_wrist_JNT
                      {
                        OFFSET 1.30583589376 1.7763568394e-15 -1.50990331349e-14
                        CHANNELS 6 Xposition Yposition Zposition Zrotation Xrotation Yrotation
                        JOINT L_Skin_foot1_JNT
                        {
                          OFFSET 0.354766509726 -7.1054273576e-15 -3.5527136788e-15
                          CHANNELS 6 Xposition Yposition Zposition Zrotation Xrotation Yrotation
                          JOINT L_Skin_foot2_JNT
                          {
                            OFFSET 0.195481811662 0.0 -1.7763568394e-15
                            CHANNELS 6 Xposition Yposition Zposition Zrotation Xrotation Yrotation
                            JOINT L_Skin_footTip_JNT
                            {
                              OFFSET 0.180941530074 5.96744875736e-16 0.0
                              CHANNELS 6 Xposition Yposition Zposition Zrotation Xrotation Yrotation
                              End Site
                              {
                                OFFSET 0 0 0
                              }
                            }
                          }
                        }
                      }
                    }
                  }
                }
                JOINT R_Skin_clavicle_JNT
                {
                  OFFSET 0.00312131042964 0.0596072851344 0.382412355971
                  CHANNELS 6 Xposition Yposition Zposition Zrotation Xrotation Yrotation
                  JOINT R_Skin_shoulder_JNT
                  {
                    OFFSET -0.910590683948 -2.79570239137e-06 -4.4408920985e-15
                    CHANNELS 6 Xposition Yposition Zposition Zrotation Xrotation Yrotation
                    JOINT R_Skin_edbow_JNT
                    {
                      OFFSET -0.940268042892 -3.9549336952e-06 -3.5527136788e-15
                      CHANNELS 6 Xposition Yposition Zposition Zrotation Xrotation Yrotation
                      JOINT R_Skin_wrist_JNT
                      {
                        OFFSET -1.30583549991 1.93787637315e-06 0.0
                        CHANNELS 6 Xposition Yposition Zposition Zrotation Xrotation Yrotation
                        JOINT R_Skin_foot1_JNT
                        {
                          OFFSET -0.354767395715 -1.27959533636e-06 -8.881784197e-16
                          CHANNELS 6 Xposition Yposition Zposition Zrotation Xrotation Yrotation
                          JOINT R_Skin_foot2_JNT
                          {
                            OFFSET -0.195477166447 2.29827840403e-06 -8.881784197e-16
                            CHANNELS 6 Xposition Yposition Zposition Zrotation Xrotation Yrotation
                            JOINT R_Skin_footTip_JNT
                            {
                              OFFSET -0.180944003358 6.89551508809e-08 8.881784197e-16
                              CHANNELS 6 Xposition Yposition Zposition Zrotation Xrotation Yrotation
                              End Site
                              {
                                OFFSET 0 0 0
                              }
                            }
                          }
                        }
                      }
                    }
                  }
                }
              }
            }
          }
        }
      }
    }
  }
  JOINT L_Skin_hip_JNT
  {
    OFFSET 0.0487097145293 -0.348980050021 -0.41779413641
    CHANNELS 6 Xposition Yposition Zposition Zrotation Xrotation Yrotation
    JOINT L_Skin_knee_JNT
    {
      OFFSET 1.16045455622 -1.7763568394e-15 8.881784197e-16
      CHANNELS 6 Xposition Yposition Zposition Zrotation Xrotation Yrotation
      JOINT L_Skin_ankle_JNT
      {
        OFFSET 1.4217066572 -8.881784197e-16 -2.30926389122e-14
        CHANNELS 6 Xposition Yposition Zposition Zrotation Xrotation Yrotation
        JOINT L_Skin_ball_JNT
        {
          OFFSET 0.814265595898 -1.7763568394e-15 1.50990331349e-14
          CHANNELS 6 Xposition Yposition Zposition Zrotation Xrotation Yrotation
          JOINT L_Skin_toe_JNT
          {
            OFFSET 0.181323767428 -8.881784197e-16 9.7699626167e-15
            CHANNELS 6 Xposition Yposition Zposition Zrotation Xrotation Yrotation
            JOINT L_Skin_toeTip_JNT
            {
              OFFSET 0.208347860175 0.0 8.881784197e-16
              CHANNELS 6 Xposition Yposition Zposition Zrotation Xrotation Yrotation
              End Site
              {
                OFFSET 0 0 0
              }
            }
          }
        }
      }
    }
  }
  JOINT R_Skin_hip_JNT
  {
    OFFSET 0.0487124874295 -0.210744420335 0.417794
    CHANNELS 6 Xposition Yposition Zposition Zrotation Xrotation Yrotation
    JOINT R_Skin_knee_JNT
    {
      OFFSET -1.16045778988 2.873763564e-06 0.0
      CHANNELS 6 Xposition Yposition Zposition Zrotation Xrotation Yrotation
      JOINT R_Skin_ankle_JNT
      {
        OFFSET -1.42170161863 -5.70296045055e-07 -8.881784197e-16
        CHANNELS 6 Xposition Yposition Zposition Zrotation Xrotation Yrotation
        JOINT R_Skin_ball_JNT
        {
          OFFSET -0.814262521828 8.46352387818e-06 -8.881784197e-16
          CHANNELS 6 Xposition Yposition Zposition Zrotation Xrotation Yrotation
          JOINT R_Skin_toe_JNT
          {
            OFFSET -0.181329158728 -3.30069482457e-06 8.881784197e-16
            CHANNELS 6 Xposition Yposition Zposition Zrotation Xrotation Yrotation
            JOINT R_Skin_toeTip_JNT
            {
              OFFSET -0.208348907902 2.71287027509e-07 -8.881784197e-16
              CHANNELS 6 Xposition Yposition Zposition Zrotation Xrotation Yrotation
              End Site
              {
                OFFSET 0 0 0
              }
            }
          }
        }
      }
    }
  }
  JOINT Skin_tail1_JNT
  {
    OFFSET -0.366349460513 0.0784844272726 -1.62691848398e-16
    CHANNELS 6 Xposition Yposition Zposition Zrotation Xrotation Yrotation
    JOINT Skin_tail2_JNT
    {
      OFFSET 0.182306910239 0.0 -4.04802658592e-17
      CHANNELS 6 Xposition Yposition Zposition Zrotation Xrotation Yrotation
      JOINT Skin_tail3_JNT
      {
        OFFSET 0.182306910239 0.0 -4.04802658592e-17
        CHANNELS 6 Xposition Yposition Zposition Zrotation Xrotation Yrotation
        JOINT Skin_tail4_JNT
        {
          OFFSET 0.182306910239 0.0 -4.04802658592e-17
          CHANNELS 6 Xposition Yposition Zposition Zrotation Xrotation Yrotation
          JOINT Skin_tail5_JNT
          {
            OFFSET 0.182306910239 0.0 -4.04802658592e-17
            CHANNELS 6 Xposition Yposition Zposition Zrotation Xrotation Yrotation
            JOINT Skin_tail6_JNT
            {
              OFFSET 0.182306910239 0.0 -4.04802658592e-17
              CHANNELS 6 Xposition Yposition Zposition Zrotation Xrotation Yrotation
              JOINT Skin_tail7_JNT
              {
                OFFSET 0.182306910239 0.0 -4.04802658592e-17
                CHANNELS 6 Xposition Yposition Zposition Zrotation Xrotation Yrotation
                JOINT Skin_tail8_JNT
                {
                  OFFSET 0.182306910239 0.0 -4.04802658592e-17
                  CHANNELS 6 Xposition Yposition Zposition Zrotation Xrotation Yrotation
                  JOINT Skin_tail9_JNT
                  {
                    OFFSET 0.182306910239 0.0 -4.04802658592e-17
                    CHANNELS 6 Xposition Yposition Zposition Zrotation Xrotation Yrotation
                    JOINT Skin_tail10_JNT
                    {
                      OFFSET 0.182306910239 0.0 -4.04802658592e-17
                      CHANNELS 6 Xposition Yposition Zposition Zrotation Xrotation Yrotation
                      JOINT Skin_tail11_JNT
                      {
                        OFFSET 0.182306910239 4.4408920985e-16 -4.04802658592e-17
                        CHANNELS 6 Xposition Yposition Zposition Zrotation Xrotation Yrotation
                        JOINT Skin_tail12_JNT
                        {
                          OFFSET 0.182306910239 -8.881784197e-16 -4.04802658592e-17
                          CHANNELS 6 Xposition Yposition Zposition Zrotation Xrotation Yrotation
                          JOINT Skin_tail13_JNT
                          {
                            OFFSET 0.182306910239 0.0 -4.04802658592e-17
                            CHANNELS 6 Xposition Yposition Zposition Zrotation Xrotation Yrotation
                            JOINT Skin_tail14_JNT
                            {
                              OFFSET 0.182306910239 4.4408920985e-16 -4.04802658592e-17
                              CHANNELS 6 Xposition Yposition Zposition Zrotation Xrotation Yrotation
                              JOINT Skin_tail15_JNT
                              {
                                OFFSET 0.182306910239 4.4408920985e-16 -4.04802658592e-17
                                CHANNELS 6 Xposition Yposition Zposition Zrotation Xrotation Yrotation
                                JOINT Skin_tail16_JNT
                                {
                                  OFFSET 0.182306910239 -4.4408920985e-16 -4.04802658592e-17
                                  CHANNELS 6 Xposition Yposition Zposition Zrotation Xrotation Yrotation
                                  JOINT Skin_tail17_JNT
                                  {
                                    OFFSET 0.182306910239 8.881784197e-16 -4.04802658592e-17
                                    CHANNELS 6 Xposition Yposition Zposition Zrotation Xrotation Yrotation
                                    JOINT Skin_tail18_JNT
                                    {
                                      OFFSET 0.182306910239 -8.881784197e-16 -4.04802658592e-17
                                      CHANNELS 6 Xposition Yposition Zposition Zrotation Xrotation Yrotation
                                      JOINT Skin_tail19_JNT
                                      {
                                        OFFSET 0.182306910239 4.4408920985e-16 -4.04802658592e-17
                                        CHANNELS 6 Xposition Yposition Zposition Zrotation Xrotation Yrotation
                                        End Site
                                        {
                                          OFFSET 0 0 0
                                        }
                                      }
                                    }
                                  }
                                }
                              }
                            }
                          }
                        }
                      }
                    }
                  }
                }
              }
            }
          }
        }
      }
    }
  }
}
MOTION
Frames: 2.0
Frame Time: 0.0416666666667
-0.0531727973356 3.17661098963 -1.75487314048 -3.28873 -0.09913 -85.26188 0.644014782729 5.45341549696e-13 1.7763568394e-15 -1.37502 0.0081 -0.33757 0.469913023969 8.881784197e-16 -1.7763568394e-15 -1.50226 1.0155 -1.19195 0.473562542536 0.0 8.881784197e-16 0.32103 0.80275 -1.978 0.473426148356 -1.7763568394e-15 -1.7763568394e-15 1.03134 0.45546 -2.44767 0.470279840807 -1.33226762955e-15 -1.7763568394e-15 -2.78325 0.39174 -1.76114 0.46477371909 -1.7763568394e-15 -8.881784197e-16 -7.85127 0.5038 -0.8203 0.460515437109 -8.881784197e-16 0.0 -5.59763 0.0 -0.12604 0.341610817818 9.49389782345e-07 4.96994534416e-09 19.24246 -1e-05 -0.0019 0.184471311008 -2.6645352591e-15 -1.7763568394e-15 0.05449 -0.00451 -0.00038 0.184550554659 -7.54951656745e-15 -3.5527136788e-15 -0.02521 -0.00509 0.0049 0.184888074319 -4.88498130835e-15 -8.881784197e-16 -0.03881 -0.0061 0.00709 0.185274097033 2.6645352591e-15 -3.5527136788e-15 0.23098 -0.00449 -0.00396 0.184805322171 -8.881784197e-15 -6.2172489379e-15 -0.80356 0.00065 -0.01965 0.193620833307 0.00477040198153 -2.6645352591e-15 16.88703 0.0 3.55275 0.766066184347 -0.215410263987 -1.06581410364e-14 0.0 0.0 0.0 -0.00212866765731 -0.109268485781 -8.37874009934e-05 -42.3098 -1e-05 0.0 0.80327889985 -2.22044604925e-15 -3.5527136788e-15 43.47605 -1e-05 90.0 0.0142778251712 -0.0652099409664 -0.383111588102 -40.57901 0.0 0.0 0.910590239312 -1.33226762955e-15 -1.06581410364e-14 -33.68947 -3.3554 -3.96139 0.940271685332 1.22124532709e-15 -5.3290705182e-15 48.93022 0.0 0.0 1.30583589376 2.6645352591e-15 -1.68753899743e-14 -128.97179 85.42079 150.30614 0.354766509726 -6.2172489379e-15 -2.99760216649e-15 -90.0 -83.09168 -90.0 0.195481811662 8.881784197e-16 -4.4408920985e-15 29.40732 0.0 0.0 0.180941530074 2.01227923213e-15 -4.4408920985e-15 0.0 0.0 0.0 0.000250133328465 0.0929841399184 0.381480795729 116.6705 0.0 0.0 -0.910590683948 -2.79570239226e-06 -2.6645352591e-15 -85.5204 10.06683 2.14649 -0.940268042892 -3.95493369587e-06 -1.7763568394e-15 90.20722 0.0 0.0 -1.30583549991 1.93787637048e-06 5.3290705182e-15 -32.49992 -3.05004 8.03518 -0.354767395715 -1.27959533636e-06 -1.7763568394e-15 -50.77121 0.0 0.0 -0.195477166447 2.29827840703e-06 -8.881784197e-16 29.40732 0.0 0.0 -0.180944003358 6.89551502564e-08 -3.5527136788e-15 0.0 0.0 0.0 0.0487097145293 -0.210744674736 -0.41779413641 -80.6216 3.87424 0.23561 1.16045455622 -4.4408920985e-16 -1.7763568394e-15 -63.71482 0.0 0.0 1.4217066572 3.10862446895e-15 -2.57571741713e-14 36.79654 0.0 0.0 0.814265595898 0.0 1.50990331349e-14 79.58511 2.5917 0.29141 0.181323767428 -2.22044604925e-15 7.1054273576e-15 15.58166 1e-05 0.0 0.208347860175 -9.99200722163e-16 2.6645352591e-15 0.0 0.0 0.0 0.0487124874295 -0.210744420335 0.417794 125.77514 -9.43475 -4.15977 -1.16045778988 2.87376356112e-06 0.0 -37.532 0.0 0.0 -1.42170161863 -5.70296045943e-07 -3.5527136788e-15 61.33703 0.0 0.0 -0.814262521828 8.46352387751e-06 8.881784197e-16 28.82772 5.60681 -0.33405 -0.181329158728 -3.30069482446e-06 0.0 15.58166 -1e-05 0.0 -0.208348907902 2.71287026399e-07 2.6645352591e-15 0.0 0.0 0.0 -0.366349460513 0.0784844272726 -8.881784197e-16 16.30919 -0.0 179.99999 0.182306910239 0.0 0.0 -1.73613 0.0 0.0 0.182306910239 0.0 0.0 -2.25544 0.0 0.0 0.182306910239 -8.881784197e-16 8.881784197e-16 -2.92893 0.0 0.0 0.182306910239 0.0 8.881784197e-16 -3.56284 0.0 0.0 0.182306910239 8.881784197e-16 8.881784197e-16 -3.2806 0.0 0.0 0.182306910239 0.0 8.881784197e-16 -1.70028 0.0 0.0 0.182306910239 8.881784197e-16 0.0 -0.23015 0.0 0.0 0.182306910239 1.7763568394e-15 8.881784197e-16 1.96439 0.0 0.0 0.182306910239 2.6645352591e-15 8.881784197e-16 4.04188 0.0 0.0 0.182306910239 3.5527136788e-15 8.881784197e-16 4.07863 0.0 0.0 0.182306910239 1.7763568394e-15 8.881784197e-16 3.20231 0.0 0.0 0.182306910239 3.5527136788e-15 1.7763568394e-15 2.65894 0.0 0.0 0.182306910239 3.5527136788e-15 8.881784197e-16 4.32741 0.0 0.0 0.182306910239 3.5527136788e-15 1.7763568394e-15 4.725 0.0 0.0 0.182306910239 3.10862446895e-15 8.881784197e-16 3.90445 0.0 0.0 0.182306910239 3.99680288865e-15 0.0 3.01394 0.0 0.0 0.182306910239 1.7763568394e-15 8.881784197e-16 2.31262 0.0 0.0 0.182306910239 3.10862446895e-15 0.0 0.0 0.0 -90.0 
-0.0438071370063 3.10708860863 -1.24198640384 -2.8046 0.05116 -86.09243 0.644014782729 5.44009282066e-13 4.4408920985e-15 -1.45369 0.01285 -0.50673 0.468805224869 1.7763568394e-15 -3.5527136788e-15 -1.13525 0.80338 -1.25175 0.471564840999 4.4408920985e-16 0.0 1.47492 0.5778 -1.59892 0.472422064504 -8.881784197e-16 -8.881784197e-16 2.51632 0.29252 -1.69152 0.471834456107 -8.881784197e-16 -8.881784197e-16 -2.71734 0.32233 -1.00147 0.465545376124 -8.881784197e-16 -1.7763568394e-15 -9.76697 0.4662 -0.17948 0.458929840846 -8.881784197e-16 8.881784197e-16 -7.21182 0.0 0.13835 0.341610770964 1.23394605511e-06 4.05270883519e-08 19.24215 0.0 -0.001 0.184469584255 4.4408920985e-16 -8.881784197e-16 0.05398 -0.00416 0.0002 0.18454628727 -1.68753899743e-14 -2.77200484788e-12 -0.02558 -0.0046 0.00366 0.184882597104 -2.03836947321e-13 -1.46282985725e-12 -0.03882 -0.00526 0.00482 0.185269455698 -4.42312853011e-13 5.34683408659e-13 0.23231 -0.00394 -0.00393 0.184806751966 -2.52242671195e-13 -1.14130926931e-11 -0.80055 9e-05 -0.01624 0.193620833307 0.00477040198215 -4.48938664022e-11 16.49229 0.0 3.02682 0.766066184173 -0.215410264605 -5.06963360181e-11 0.0 0.0 0.0 -0.00211752079244 -0.109281565266 -7.07520578453e-05 -42.3098 -1e-05 0.0 0.80327889985 1.7763568394e-15 1.7763568394e-15 43.47605 -1e-05 90.0 0.0102399875387 -0.0202334653845 -0.38323662118 -44.59284 0.0 0.0 0.910590239312 8.881784197e-16 -5.3290705182e-15 -51.1952 0.36111 -5.27647 0.940271685332 1.7763568394e-15 8.881784197e-15 65.1764 0.0 0.0 1.30583589376 2.22044604925e-15 -1.24344978758e-14 -125.69337 84.59907 153.76543 0.354766509726 -3.5527136788e-15 -1.88737914186e-15 -90.00001 -82.3491 -90.0 0.195481811662 -4.4408920985e-16 8.881784197e-16 29.40732 0.0 0.0 0.180941530074 -3.67761376907e-16 -1.7763568394e-15 0.0 0.0 0.0 0.00144312950521 0.0795267193064 0.38161959735 118.29536 0.0 0.0 -0.910590683948 -2.79570239381e-06 5.3290705182e-15 -83.80832 9.23415 0.12919 -0.940268042892 -3.95493369565e-06 1.7763568394e-15 97.03201 0.0 0.0 -1.30583549991 1.9378763717e-06 7.9936057773e-15 -36.56607 -2.3102 8.10211 -0.354767395715 -1.27959533769e-06 8.881784197e-16 -78.19307 5e-05 -4e-05 -0.195477166447 2.29827840525e-06 -1.7763568394e-15 29.40732 0.0 0.0 -0.180944003358 6.89551488131e-08 -1.7763568394e-15 0.0 0.0 0.0 0.0487097145293 -0.336096286103 -0.41779413641 -73.14562 2.8658 -0.90885 1.16045455622 -4.4408920985e-16 -8.881784197e-16 -82.47539 0.0 0.0 1.4217066572 -4.4408920985e-16 -2.13162820728e-14 49.0557 0.0 0.0 0.814265595898 -2.6645352591e-15 1.50990331349e-14 41.86542 2.02767 2.18763 0.181323767428 -8.881784197e-16 1.15463194561e-14 15.58166 0.0 0.0 0.208347860175 -2.22044604925e-15 4.4408920985e-15 0.0 0.0 0.0 0.0487124874295 -0.210744420335 0.417794 126.36351 -8.41318 -4.05242 -1.16045778988 2.87376356045e-06 -3.5527136788e-15 -58.29955 0.0 0.0 -1.42170161863 -5.70296045499e-07 8.881784197e-16 78.48429 0.0 0.0 -0.814262521828 8.46352387684e-06 0.0 29.21284 5.46253 -0.07235 -0.181329158728 -3.30069482438e-06 0.0 15.58166 2e-05 0.0 -0.208348907902 2.71287026399e-07 -8.881784197e-16 0.0 0.0 0.0 -0.366349460513 0.0784844272726 8.881784197e-16 16.30919 -0.0 179.99999 0.182306910239 0.0 0.0 -1.73613 0.0 0.0 0.182306910239 0.0 8.881784197e-16 -2.25544 0.0 0.0 0.182306910239 -8.881784197e-16 0.0 -2.92893 0.0 0.0 0.182306910239 -8.881784197e-16 -8.881784197e-16 -3.56284 0.0 0.0 0.182306910239 -8.881784197e-16 -1.7763568394e-15 -3.2806 0.0 0.0 0.182306910239 -1.7763568394e-15 -8.881784197e-16 -1.70028 0.0 0.0 0.182306910239 -8.881784197e-16 -8.881784197e-16 -0.23015 0.0 0.0 0.182306910239 -1.7763568394e-15 0.0 1.96439 0.0 0.0 0.182306910239 0.0 0.0 4.04188 0.0 0.0 0.182306910239 0.0 0.0 4.07863 0.0 0.0 0.182306910239 -2.6645352591e-15 0.0 3.20231 0.0 0.0 0.182306910239 -1.7763568394e-15 -8.881784197e-16 2.65894 0.0 0.0 0.182306910239 -1.7763568394e-15 -8.881784197e-16 4.32741 0.0 0.0 0.182306910239 -2.22044604925e-15 -1.7763568394e-15 4.725 0.0 0.0 0.182306910239 -3.5527136788e-15 -8.881784197e-16 3.90445 0.0 0.0 0.182306910239 -2.22044604925e-15 -1.7763568394e-15 3.01394 0.0 0.0 0.182306910239 -3.99680288865e-15 -8.881784197e-16 2.31262 0.0 0.0 0.182306910239 -3.10862446895e-15 -8.881784197e-16 0.0 0.0 -90.0 
